<svg width="42" height="33" viewBox="0 0 42 33" fill="none" xmlns="http://www.w3.org/2000/svg">
<g filter="url(#filter0_dd_3226_7713)">
<g clip-path="url(#clip0_3226_7713)">
<path d="M32.3333 3H9.66667C8.19391 3 7 4.07452 7 5.4V18.6C7 19.9255 8.19391 21 9.66667 21H32.3333C33.8061 21 35 19.9255 35 18.6V5.4C35 4.07452 33.8061 3 32.3333 3Z" fill="#FFDA2C"/>
<path fill-rule="evenodd" clip-rule="evenodd" d="M7 15H35V21H7V15ZM7 3H35V9H7V3Z" fill="#3ECBF8"/>
<path fill-rule="evenodd" clip-rule="evenodd" d="M7 3V21.0396L21.6667 12L7 3Z" fill="#151515"/>
</g>
</g>
<defs>
<filter id="filter0_dd_3226_7713" x="0.142857" y="0.714285" width="41.7143" height="31.7143" filterUnits="userSpaceOnUse" color-interpolation-filters="sRGB">
<feFlood flood-opacity="0" result="BackgroundImageFix"/>
<feColorMatrix in="SourceAlpha" type="matrix" values="0 0 0 0 0 0 0 0 0 0 0 0 0 0 0 0 0 0 127 0" result="hardAlpha"/>
<feOffset dy="4.57143"/>
<feGaussianBlur stdDeviation="3.42857"/>
<feComposite in2="hardAlpha" operator="out"/>
<feColorMatrix type="matrix" values="0 0 0 0 0.258824 0 0 0 0 0.278431 0 0 0 0 0.298039 0 0 0 0.08 0"/>
<feBlend mode="normal" in2="BackgroundImageFix" result="effect1_dropShadow_3226_7713"/>
<feColorMatrix in="SourceAlpha" type="matrix" values="0 0 0 0 0 0 0 0 0 0 0 0 0 0 0 0 0 0 127 0" result="hardAlpha"/>
<feOffset/>
<feGaussianBlur stdDeviation="0.285714"/>
<feComposite in2="hardAlpha" operator="out"/>
<feColorMatrix type="matrix" values="0 0 0 0 0.258824 0 0 0 0 0.278431 0 0 0 0 0.298039 0 0 0 0.32 0"/>
<feBlend mode="normal" in2="effect1_dropShadow_3226_7713" result="effect2_dropShadow_3226_7713"/>
<feBlend mode="normal" in="SourceGraphic" in2="effect2_dropShadow_3226_7713" result="shape"/>
</filter>
<clipPath id="clip0_3226_7713">
<rect x="7" y="3" width="28" height="18" rx="5" fill="white"/>
</clipPath>
</defs>
</svg>
