<svg width="42" height="33" viewBox="0 0 42 33" fill="none" xmlns="http://www.w3.org/2000/svg">
<g filter="url(#filter0_dd_3226_7715)">
<g clip-path="url(#clip0_3226_7715)">
<path d="M32.3331 3H9.66642C8.19366 3 6.99976 4.07452 6.99976 5.4V18.6C6.99976 19.9255 8.19366 21 9.66642 21H32.3331C33.8058 21 34.9998 19.9255 34.9998 18.6V5.4C34.9998 4.07452 33.8058 3 32.3331 3Z" fill="#FFDA2C"/>
<path fill-rule="evenodd" clip-rule="evenodd" d="M6.99976 3H16.3331V21H6.99976V3ZM25.6664 3H34.9998V21H25.6664V3Z" fill="#1A47B8"/>
<path fill-rule="evenodd" clip-rule="evenodd" d="M20.3331 15H21.6665V16.2H20.3331V15ZM22.9998 12.6H24.3331V13.8H22.9998V12.6ZM17.6665 12.6H18.9998V13.8H17.6665V12.6Z" fill="#AE6A3E"/>
<path fill-rule="evenodd" clip-rule="evenodd" d="M21.6665 12.6V7.80002H20.3331V12.6L18.9998 12.6V13.8L20.3331 13.8V15H21.6665V13.8L22.9998 13.8V12.6L21.6665 12.6ZM22.9998 9.00002H24.3331V12.6H22.9998V9.00002ZM17.6665 9.00002H18.9998V12.6H17.6665V9.00002Z" fill="#151515"/>
</g>
</g>
<defs>
<filter id="filter0_dd_3226_7715" x="0.142857" y="0.714285" width="41.7143" height="31.7143" filterUnits="userSpaceOnUse" color-interpolation-filters="sRGB">
<feFlood flood-opacity="0" result="BackgroundImageFix"/>
<feColorMatrix in="SourceAlpha" type="matrix" values="0 0 0 0 0 0 0 0 0 0 0 0 0 0 0 0 0 0 127 0" result="hardAlpha"/>
<feOffset dy="4.57143"/>
<feGaussianBlur stdDeviation="3.42857"/>
<feComposite in2="hardAlpha" operator="out"/>
<feColorMatrix type="matrix" values="0 0 0 0 0.258824 0 0 0 0 0.278431 0 0 0 0 0.298039 0 0 0 0.08 0"/>
<feBlend mode="normal" in2="BackgroundImageFix" result="effect1_dropShadow_3226_7715"/>
<feColorMatrix in="SourceAlpha" type="matrix" values="0 0 0 0 0 0 0 0 0 0 0 0 0 0 0 0 0 0 127 0" result="hardAlpha"/>
<feOffset/>
<feGaussianBlur stdDeviation="0.285714"/>
<feComposite in2="hardAlpha" operator="out"/>
<feColorMatrix type="matrix" values="0 0 0 0 0.258824 0 0 0 0 0.278431 0 0 0 0 0.298039 0 0 0 0.32 0"/>
<feBlend mode="normal" in2="effect1_dropShadow_3226_7715" result="effect2_dropShadow_3226_7715"/>
<feBlend mode="normal" in="SourceGraphic" in2="effect2_dropShadow_3226_7715" result="shape"/>
</filter>
<clipPath id="clip0_3226_7715">
<rect x="7" y="3" width="28" height="18" rx="5" fill="white"/>
</clipPath>
</defs>
</svg>
