<svg width="42" height="33" viewBox="0 0 42 33" fill="none" xmlns="http://www.w3.org/2000/svg">
<g filter="url(#filter0_dd_3226_7771)">
<g clip-path="url(#clip0_3226_7771)">
<rect x="7" y="3" width="28" height="18" rx="5" fill="white"/>
<path fill-rule="evenodd" clip-rule="evenodd" d="M7.00024 16.2H35.0002V21H7.00024V16.2ZM7.00024 3H35.0002V7.8H7.00024V3Z" fill="#0A6A30"/>
<path fill-rule="evenodd" clip-rule="evenodd" d="M7.00024 16.2H35.0002V21H7.00024V16.2ZM7.00024 3H35.0002V7.8H7.00024V3Z" fill="#1A47B8"/>
<path fill-rule="evenodd" clip-rule="evenodd" d="M7.00026 9H35.0003V15H7.00026V9Z" fill="#AF010D"/>
<path fill-rule="evenodd" clip-rule="evenodd" d="M21.0003 13.5L19.0403 14.4276L19.4136 12.4632L17.8296 11.0712L20.0203 10.7868L21.0003 9L21.9803 10.788L24.1709 11.0724L22.5843 12.4644L22.9576 14.4276" fill="#FFDA2C"/>
</g>
</g>
<defs>
<filter id="filter0_dd_3226_7771" x="0.142857" y="0.714285" width="41.7143" height="31.7143" filterUnits="userSpaceOnUse" color-interpolation-filters="sRGB">
<feFlood flood-opacity="0" result="BackgroundImageFix"/>
<feColorMatrix in="SourceAlpha" type="matrix" values="0 0 0 0 0 0 0 0 0 0 0 0 0 0 0 0 0 0 127 0" result="hardAlpha"/>
<feOffset dy="4.57143"/>
<feGaussianBlur stdDeviation="3.42857"/>
<feComposite in2="hardAlpha" operator="out"/>
<feColorMatrix type="matrix" values="0 0 0 0 0.258824 0 0 0 0 0.278431 0 0 0 0 0.298039 0 0 0 0.08 0"/>
<feBlend mode="normal" in2="BackgroundImageFix" result="effect1_dropShadow_3226_7771"/>
<feColorMatrix in="SourceAlpha" type="matrix" values="0 0 0 0 0 0 0 0 0 0 0 0 0 0 0 0 0 0 127 0" result="hardAlpha"/>
<feOffset/>
<feGaussianBlur stdDeviation="0.285714"/>
<feComposite in2="hardAlpha" operator="out"/>
<feColorMatrix type="matrix" values="0 0 0 0 0.258824 0 0 0 0 0.278431 0 0 0 0 0.298039 0 0 0 0.32 0"/>
<feBlend mode="normal" in2="effect1_dropShadow_3226_7771" result="effect2_dropShadow_3226_7771"/>
<feBlend mode="normal" in="SourceGraphic" in2="effect2_dropShadow_3226_7771" result="shape"/>
</filter>
<clipPath id="clip0_3226_7771">
<rect x="7" y="3" width="28" height="18" rx="5" fill="white"/>
</clipPath>
</defs>
</svg>
