<svg width="42" height="33" viewBox="0 0 42 33" fill="none" xmlns="http://www.w3.org/2000/svg">
<g filter="url(#filter0_dd_3226_7711)">
<g clip-path="url(#clip0_3226_7711)">
<rect x="7" y="3" width="28" height="18" rx="5" fill="#3ECBF8"/>
<path d="M32.3333 3H9.66667C8.19391 3 7 4.07452 7 5.4V18.6C7 19.9255 8.19391 21 9.66667 21H32.3333C33.8061 21 35 19.9255 35 18.6V5.4C35 4.07452 33.8061 3 32.3333 3Z" fill="#3ECBF8"/>
<path fill-rule="evenodd" clip-rule="evenodd" d="M7 13.8H35V15H7V13.8ZM7 16.2H35V17.4H7V16.2Z" fill="#FFDA2C"/>
<path fill-rule="evenodd" clip-rule="evenodd" d="M12.9801 8.38201C14.1401 8.31601 15.0001 8.08201 15.0001 7.80001C15.0001 7.51921 14.1401 7.28401 12.9801 7.21801C12.9067 6.17401 12.6467 5.40001 12.3334 5.40001C12.0214 5.40001 11.7601 6.17401 11.6867 7.21801C10.5267 7.28401 9.66675 7.51801 9.66675 7.80001C9.66675 8.08081 10.5267 8.31601 11.6867 8.38201C11.7601 9.42601 12.0201 10.2 12.3334 10.2C12.6454 10.2 12.9067 9.42601 12.9801 8.38201Z" fill="#F93939"/>
<path fill-rule="evenodd" clip-rule="evenodd" d="M12.9801 8.38201C14.1401 8.31601 15.0001 8.08201 15.0001 7.80001C15.0001 7.51921 14.1401 7.28401 12.9801 7.21801C12.9067 6.17401 12.6467 5.40001 12.3334 5.40001C12.0214 5.40001 11.7601 6.17401 11.6867 7.21801C10.5267 7.28401 9.66675 7.51801 9.66675 7.80001C9.66675 8.08081 10.5267 8.31601 11.6867 8.38201C11.7601 9.42601 12.0201 10.2 12.3334 10.2C12.6454 10.2 12.9067 9.42601 12.9801 8.38201ZM13.02 8.98196L13.6467 8.41796C13.5467 9.85556 13.2134 10.8 12.3334 10.8C11.4534 10.8 11.12 9.85436 11.0214 8.41916L11.6454 8.98076C10.0507 8.89196 9.00003 8.59196 9.00003 7.79996C9.00003 7.00796 10.0507 6.70796 11.6454 6.61916L11.0214 7.18076C11.12 5.74556 11.4534 4.79996 12.3334 4.79996C13.2134 4.79996 13.5467 5.74556 13.6454 7.18076L13.0214 6.61916C14.616 6.70796 15.6667 7.00796 15.6667 7.79996C15.6667 8.59196 14.616 8.89196 13.0214 8.98076L13.02 8.98196Z" fill="white"/>
</g>
</g>
<defs>
<filter id="filter0_dd_3226_7711" x="0.142857" y="0.714285" width="41.7143" height="31.7143" filterUnits="userSpaceOnUse" color-interpolation-filters="sRGB">
<feFlood flood-opacity="0" result="BackgroundImageFix"/>
<feColorMatrix in="SourceAlpha" type="matrix" values="0 0 0 0 0 0 0 0 0 0 0 0 0 0 0 0 0 0 127 0" result="hardAlpha"/>
<feOffset dy="4.57143"/>
<feGaussianBlur stdDeviation="3.42857"/>
<feComposite in2="hardAlpha" operator="out"/>
<feColorMatrix type="matrix" values="0 0 0 0 0.258824 0 0 0 0 0.278431 0 0 0 0 0.298039 0 0 0 0.08 0"/>
<feBlend mode="normal" in2="BackgroundImageFix" result="effect1_dropShadow_3226_7711"/>
<feColorMatrix in="SourceAlpha" type="matrix" values="0 0 0 0 0 0 0 0 0 0 0 0 0 0 0 0 0 0 127 0" result="hardAlpha"/>
<feOffset/>
<feGaussianBlur stdDeviation="0.285714"/>
<feComposite in2="hardAlpha" operator="out"/>
<feColorMatrix type="matrix" values="0 0 0 0 0.258824 0 0 0 0 0.278431 0 0 0 0 0.298039 0 0 0 0.32 0"/>
<feBlend mode="normal" in2="effect1_dropShadow_3226_7711" result="effect2_dropShadow_3226_7711"/>
<feBlend mode="normal" in="SourceGraphic" in2="effect2_dropShadow_3226_7711" result="shape"/>
</filter>
<clipPath id="clip0_3226_7711">
<rect x="7" y="3" width="28" height="18" rx="5" fill="white"/>
</clipPath>
</defs>
</svg>
