<svg width="42" height="33" viewBox="0 0 42 33" fill="none" xmlns="http://www.w3.org/2000/svg">
<g filter="url(#filter0_dd_3226_7731)">
<g clip-path="url(#clip0_3226_7731)">
<rect x="7" y="3" width="28" height="18" rx="5" fill="white"/>
<path fill-rule="evenodd" clip-rule="evenodd" d="M7 10.2H35V13.8H7V10.2ZM7 17.4H35V21H7V17.4Z" fill="#1A47B8"/>
<path d="M7 3H35V6.6H7V3Z" fill="#1A47B8"/>
<path fill-rule="evenodd" clip-rule="evenodd" d="M7 3L23 12L7 21V3Z" fill="#F93939"/>
<path fill-rule="evenodd" clip-rule="evenodd" d="M12.8374 13.5L10.8774 14.4276L11.2507 12.4632L9.66675 11.0712L11.8574 10.7868L12.8374 9L13.8174 10.788L16.0081 11.0724L14.4214 12.4644L14.7947 14.4276" fill="white"/>
</g>
</g>
<defs>
<filter id="filter0_dd_3226_7731" x="0.142857" y="0.714285" width="41.7143" height="31.7143" filterUnits="userSpaceOnUse" color-interpolation-filters="sRGB">
<feFlood flood-opacity="0" result="BackgroundImageFix"/>
<feColorMatrix in="SourceAlpha" type="matrix" values="0 0 0 0 0 0 0 0 0 0 0 0 0 0 0 0 0 0 127 0" result="hardAlpha"/>
<feOffset dy="4.57143"/>
<feGaussianBlur stdDeviation="3.42857"/>
<feComposite in2="hardAlpha" operator="out"/>
<feColorMatrix type="matrix" values="0 0 0 0 0.258824 0 0 0 0 0.278431 0 0 0 0 0.298039 0 0 0 0.08 0"/>
<feBlend mode="normal" in2="BackgroundImageFix" result="effect1_dropShadow_3226_7731"/>
<feColorMatrix in="SourceAlpha" type="matrix" values="0 0 0 0 0 0 0 0 0 0 0 0 0 0 0 0 0 0 127 0" result="hardAlpha"/>
<feOffset/>
<feGaussianBlur stdDeviation="0.285714"/>
<feComposite in2="hardAlpha" operator="out"/>
<feColorMatrix type="matrix" values="0 0 0 0 0.258824 0 0 0 0 0.278431 0 0 0 0 0.298039 0 0 0 0.32 0"/>
<feBlend mode="normal" in2="effect1_dropShadow_3226_7731" result="effect2_dropShadow_3226_7731"/>
<feBlend mode="normal" in="SourceGraphic" in2="effect2_dropShadow_3226_7731" result="shape"/>
</filter>
<clipPath id="clip0_3226_7731">
<rect x="7" y="3" width="28" height="18" rx="5" fill="white"/>
</clipPath>
</defs>
</svg>
