<svg width="42" height="33" viewBox="0 0 42 33" fill="none" xmlns="http://www.w3.org/2000/svg">
<g filter="url(#filter0_dd_3226_7735)">
<g clip-path="url(#clip0_3226_7735)">
<rect x="7" y="3" width="28" height="18" rx="5" fill="#249F58"/>
<path fill-rule="evenodd" clip-rule="evenodd" d="M20.3336 11.4H7.00024V12.6H20.3336V21H21.6669V12.6H35.0002V11.4H21.6669V3H20.3336V11.4Z" fill="#151515"/>
<path fill-rule="evenodd" clip-rule="evenodd" d="M19.0002 10.2V11.4H20.3336V3H19.0002V10.2H7.00024V11.4H20.3336V10.2H19.0002ZM20.3336 11.4H35.0002V10.2H19.0002V11.4H20.3336V10.2H19.0002V21H20.3336V11.4Z" fill="#FFDA2C"/>
<path fill-rule="evenodd" clip-rule="evenodd" d="M23.0002 13.8V12.6H21.6669V21H23.0002V13.8H35.0002V12.6H21.6669V13.8H23.0002ZM7.00024 12.6H24.3336V13.8H7.00024V12.6ZM21.6669 3H23.0002V13.8H21.6669V3Z" fill="white"/>
<path d="M21.0001 16.2C23.5774 16.2 25.6667 14.3196 25.6667 12C25.6667 9.68043 23.5774 7.80002 21.0001 7.80002C18.4227 7.80002 16.3334 9.68043 16.3334 12C16.3334 14.3196 18.4227 16.2 21.0001 16.2Z" fill="#F93939"/>
<path fill-rule="evenodd" clip-rule="evenodd" d="M19.0002 10.2H20.3336V11.4H19.0002V10.2ZM21.6668 10.2H23.0001V11.4L21.6669 11.4L21.6668 10.2ZM21.6669 12.6H23.0002V13.8H21.6669V12.6ZM19.0001 12.6L20.3336 12.6L20.3335 13.8H19.0001V12.6Z" fill="#0A6A30"/>
<path fill-rule="evenodd" clip-rule="evenodd" d="M20.3334 10.2H21.6668L21.6668 12.6H20.3334V10.2Z" fill="#955DCC"/>
</g>
</g>
<defs>
<filter id="filter0_dd_3226_7735" x="0.142857" y="0.714285" width="41.7143" height="31.7143" filterUnits="userSpaceOnUse" color-interpolation-filters="sRGB">
<feFlood flood-opacity="0" result="BackgroundImageFix"/>
<feColorMatrix in="SourceAlpha" type="matrix" values="0 0 0 0 0 0 0 0 0 0 0 0 0 0 0 0 0 0 127 0" result="hardAlpha"/>
<feOffset dy="4.57143"/>
<feGaussianBlur stdDeviation="3.42857"/>
<feComposite in2="hardAlpha" operator="out"/>
<feColorMatrix type="matrix" values="0 0 0 0 0.258824 0 0 0 0 0.278431 0 0 0 0 0.298039 0 0 0 0.08 0"/>
<feBlend mode="normal" in2="BackgroundImageFix" result="effect1_dropShadow_3226_7735"/>
<feColorMatrix in="SourceAlpha" type="matrix" values="0 0 0 0 0 0 0 0 0 0 0 0 0 0 0 0 0 0 127 0" result="hardAlpha"/>
<feOffset/>
<feGaussianBlur stdDeviation="0.285714"/>
<feComposite in2="hardAlpha" operator="out"/>
<feColorMatrix type="matrix" values="0 0 0 0 0.258824 0 0 0 0 0.278431 0 0 0 0 0.298039 0 0 0 0.32 0"/>
<feBlend mode="normal" in2="effect1_dropShadow_3226_7735" result="effect2_dropShadow_3226_7735"/>
<feBlend mode="normal" in="SourceGraphic" in2="effect2_dropShadow_3226_7735" result="shape"/>
</filter>
<clipPath id="clip0_3226_7735">
<rect x="7" y="3" width="28" height="18" rx="5" fill="white"/>
</clipPath>
</defs>
</svg>
