<svg width="42" height="33" viewBox="0 0 42 33" fill="none" xmlns="http://www.w3.org/2000/svg">
<g filter="url(#filter0_dd_3226_7739)">
<g clip-path="url(#clip0_3226_7739)">
<path d="M32.3333 3H9.66667C8.19391 3 7 4.07452 7 5.4V18.6C7 19.9255 8.19391 21 9.66667 21H32.3333C33.8061 21 35 19.9255 35 18.6V5.4C35 4.07452 33.8061 3 32.3333 3Z" fill="#1A47B8"/>
<path fill-rule="evenodd" clip-rule="evenodd" d="M7 16.2H35V21H7V16.2Z" fill="#F93939"/>
<path fill-rule="evenodd" clip-rule="evenodd" d="M7 3H35V12.6H7V3Z" fill="#FFDA2C"/>
<path d="M20.9999 15C22.1045 15 22.9999 13.9255 22.9999 12.6C22.9999 11.2746 22.1045 10.2 20.9999 10.2C19.8953 10.2 18.9999 11.2746 18.9999 12.6C18.9999 13.9255 19.8953 15 20.9999 15Z" fill="#3ECBF8"/>
<path fill-rule="evenodd" clip-rule="evenodd" d="M17.6666 11.4V13.8L20.3333 15H21.6666L24.3333 13.8V11.4L25.6666 13.8L24.3333 15L21.6666 16.2H20.3333L17.6666 15L16.3333 13.8L17.6666 11.4Z" fill="#FFDA2C"/>
<path fill-rule="evenodd" clip-rule="evenodd" d="M15 7.80002H19L21 9.00002L23 7.80002H27L23 9.00002L21.6666 10.2H20.3333L19 9.00002L15 7.80002Z" fill="#151515"/>
</g>
</g>
<defs>
<filter id="filter0_dd_3226_7739" x="0.142857" y="0.714285" width="41.7143" height="31.7143" filterUnits="userSpaceOnUse" color-interpolation-filters="sRGB">
<feFlood flood-opacity="0" result="BackgroundImageFix"/>
<feColorMatrix in="SourceAlpha" type="matrix" values="0 0 0 0 0 0 0 0 0 0 0 0 0 0 0 0 0 0 127 0" result="hardAlpha"/>
<feOffset dy="4.57143"/>
<feGaussianBlur stdDeviation="3.42857"/>
<feComposite in2="hardAlpha" operator="out"/>
<feColorMatrix type="matrix" values="0 0 0 0 0.258824 0 0 0 0 0.278431 0 0 0 0 0.298039 0 0 0 0.08 0"/>
<feBlend mode="normal" in2="BackgroundImageFix" result="effect1_dropShadow_3226_7739"/>
<feColorMatrix in="SourceAlpha" type="matrix" values="0 0 0 0 0 0 0 0 0 0 0 0 0 0 0 0 0 0 127 0" result="hardAlpha"/>
<feOffset/>
<feGaussianBlur stdDeviation="0.285714"/>
<feComposite in2="hardAlpha" operator="out"/>
<feColorMatrix type="matrix" values="0 0 0 0 0.258824 0 0 0 0 0.278431 0 0 0 0 0.298039 0 0 0 0.32 0"/>
<feBlend mode="normal" in2="effect1_dropShadow_3226_7739" result="effect2_dropShadow_3226_7739"/>
<feBlend mode="normal" in="SourceGraphic" in2="effect2_dropShadow_3226_7739" result="shape"/>
</filter>
<clipPath id="clip0_3226_7739">
<rect x="7" y="3" width="28" height="18" rx="5" fill="white"/>
</clipPath>
</defs>
</svg>
