<svg width="42" height="33" viewBox="0 0 42 33" fill="none" xmlns="http://www.w3.org/2000/svg">
<g filter="url(#filter0_dd_3226_7745)">
<g clip-path="url(#clip0_3226_7745)">
<rect x="7" y="3" width="28" height="18" rx="5" fill="white"/>
<path d="M21.0001 12.6C21.3683 12.6 21.6668 12.0627 21.6668 11.4C21.6668 10.7372 21.3683 10.2 21.0001 10.2C20.6319 10.2 20.3334 10.7372 20.3334 11.4C20.3334 12.0627 20.6319 12.6 21.0001 12.6Z" fill="#FFDA2C"/>
<path fill-rule="evenodd" clip-rule="evenodd" d="M24.3335 12C24.3335 10.344 22.8402 9 21.0002 9C19.1602 9 17.6668 10.344 17.6668 12C17.6668 13.656 19.1602 15 21.0002 15C22.8402 15 24.3335 13.656 24.3335 12ZM21.0002 13.8C22.1042 13.8 23.0002 12.726 23.0002 11.4C23.0002 10.074 22.1042 9 21.0002 9C19.8962 9 19.0002 10.074 19.0002 11.4C19.0002 12.726 19.8962 13.8 21.0002 13.8Z" fill="#249F58"/>
<path d="M27.0001 3H35.0001V21H27.0001V3Z" fill="#3ECBF8"/>
<path d="M7.00024 3H15.0002V21H7.00024V3Z" fill="#3ECBF8"/>
</g>
</g>
<defs>
<filter id="filter0_dd_3226_7745" x="0.142857" y="0.714285" width="41.7143" height="31.7143" filterUnits="userSpaceOnUse" color-interpolation-filters="sRGB">
<feFlood flood-opacity="0" result="BackgroundImageFix"/>
<feColorMatrix in="SourceAlpha" type="matrix" values="0 0 0 0 0 0 0 0 0 0 0 0 0 0 0 0 0 0 127 0" result="hardAlpha"/>
<feOffset dy="4.57143"/>
<feGaussianBlur stdDeviation="3.42857"/>
<feComposite in2="hardAlpha" operator="out"/>
<feColorMatrix type="matrix" values="0 0 0 0 0.258824 0 0 0 0 0.278431 0 0 0 0 0.298039 0 0 0 0.08 0"/>
<feBlend mode="normal" in2="BackgroundImageFix" result="effect1_dropShadow_3226_7745"/>
<feColorMatrix in="SourceAlpha" type="matrix" values="0 0 0 0 0 0 0 0 0 0 0 0 0 0 0 0 0 0 127 0" result="hardAlpha"/>
<feOffset/>
<feGaussianBlur stdDeviation="0.285714"/>
<feComposite in2="hardAlpha" operator="out"/>
<feColorMatrix type="matrix" values="0 0 0 0 0.258824 0 0 0 0 0.278431 0 0 0 0 0.298039 0 0 0 0.32 0"/>
<feBlend mode="normal" in2="effect1_dropShadow_3226_7745" result="effect2_dropShadow_3226_7745"/>
<feBlend mode="normal" in="SourceGraphic" in2="effect2_dropShadow_3226_7745" result="shape"/>
</filter>
<clipPath id="clip0_3226_7745">
<rect x="7" y="3" width="28" height="18" rx="5" fill="white"/>
</clipPath>
</defs>
</svg>
