<svg width="42" height="25" viewBox="0 0 50% 50%" fill="none" xmlns="http://www.w3.org/2000/svg">
<g filter="url(#filter0_dd_3226_7749)">
<rect x="7" y="3" width="28" height="18" rx="5" fill="#F93939"/>
<path fill-rule="evenodd" clip-rule="evenodd" d="M7 3H35V12.6H7V3Z" fill="#1A47B8"/>
<path fill-rule="evenodd" clip-rule="evenodd" d="M15 9H26.1111V15H15V9Z" fill="white"/>
<path fill-rule="evenodd" clip-rule="evenodd" d="M19.4441 10.9999H21.6663V14.9999H19.4441V10.9999Z" fill="#FFDA2C"/>
<path fill-rule="evenodd" clip-rule="evenodd" d="M17.2227 12C17.2227 10.344 18.7027 9 20.556 9C22.396 9 23.8893 10.332 23.8893 12V15H17.2227V12ZM19.4449 12.01C19.4449 11.45 19.9604 11 20.556 11C21.1693 11 21.6671 11.428 21.6671 12.01V15H19.4449V12.01Z" fill="#249F58"/>
</g>
<defs>
<filter id="filter0_dd_3226_7749" x="0.142857" y="0.714285" width="41.7143" height="31.7143" filterUnits="userSpaceOnUse" color-interpolation-filters="sRGB">
<feFlood flood-opacity="0" result="BackgroundImageFix"/>
<feColorMatrix in="SourceAlpha" type="matrix" values="0 0 0 0 0 0 0 0 0 0 0 0 0 0 0 0 0 0 127 0" result="hardAlpha"/>
<feOffset dy="4.57143"/>
<feGaussianBlur stdDeviation="3.42857"/>
<feComposite in2="hardAlpha" operator="out"/>
<feColorMatrix type="matrix" values="0 0 0 0 0.258824 0 0 0 0 0.278431 0 0 0 0 0.298039 0 0 0 0.08 0"/>
<feBlend mode="normal" in2="BackgroundImageFix" result="effect1_dropShadow_3226_7749"/>
<feColorMatrix in="SourceAlpha" type="matrix" values="0 0 0 0 0 0 0 0 0 0 0 0 0 0 0 0 0 0 127 0" result="hardAlpha"/>
<feOffset/>
<feGaussianBlur stdDeviation="0.285714"/>
<feComposite in2="hardAlpha" operator="out"/>
<feColorMatrix type="matrix" values="0 0 0 0 0.258824 0 0 0 0 0.278431 0 0 0 0 0.298039 0 0 0 0.32 0"/>
<feBlend mode="normal" in2="effect1_dropShadow_3226_7749" result="effect2_dropShadow_3226_7749"/>
<feBlend mode="normal" in="SourceGraphic" in2="effect2_dropShadow_3226_7749" result="shape"/>
</filter>
</defs>
</svg>
