<svg width="42" height="33" viewBox="0 0 42 33" fill="none" xmlns="http://www.w3.org/2000/svg">
<g filter="url(#filter0_dd_3226_7733)">
<rect x="7" y="3" width="28" height="18" rx="5" fill="#1A47B8"/>
<path d="M35 13.7996H7V16.1996H35V13.7996Z" fill="#FFDA2C"/>
<path fill-rule="evenodd" clip-rule="evenodd" d="M13.6667 8.99961H12.9939C12.6211 8.99961 12.3334 9.26824 12.3334 9.59961C12.3334 9.92129 12.6291 10.1996 12.9939 10.1996H13.6667V10.8051C13.6667 11.1407 13.9652 11.3996 14.3334 11.3996C14.6908 11.3996 15.0001 11.1335 15.0001 10.8051V10.1996H15.6729C16.0457 10.1996 16.3334 9.93098 16.3334 9.59961C16.3334 9.27793 16.0377 8.99961 15.6729 8.99961H15.0001V8.39408C15.0001 8.05851 14.7016 7.79961 14.3334 7.79961C13.976 7.79961 13.6667 8.06576 13.6667 8.39408V8.99961ZM11.0001 6.59961H12.3334V7.79961H11.0001V6.59961Z" fill="white"/>
</g>
<defs>
<filter id="filter0_dd_3226_7733" x="0.142857" y="0.714285" width="41.7143" height="31.7143" filterUnits="userSpaceOnUse" color-interpolation-filters="sRGB">
<feFlood flood-opacity="0" result="BackgroundImageFix"/>
<feColorMatrix in="SourceAlpha" type="matrix" values="0 0 0 0 0 0 0 0 0 0 0 0 0 0 0 0 0 0 127 0" result="hardAlpha"/>
<feOffset dy="4.57143"/>
<feGaussianBlur stdDeviation="3.42857"/>
<feComposite in2="hardAlpha" operator="out"/>
<feColorMatrix type="matrix" values="0 0 0 0 0.258824 0 0 0 0 0.278431 0 0 0 0 0.298039 0 0 0 0.08 0"/>
<feBlend mode="normal" in2="BackgroundImageFix" result="effect1_dropShadow_3226_7733"/>
<feColorMatrix in="SourceAlpha" type="matrix" values="0 0 0 0 0 0 0 0 0 0 0 0 0 0 0 0 0 0 127 0" result="hardAlpha"/>
<feOffset/>
<feGaussianBlur stdDeviation="0.285714"/>
<feComposite in2="hardAlpha" operator="out"/>
<feColorMatrix type="matrix" values="0 0 0 0 0.258824 0 0 0 0 0.278431 0 0 0 0 0.298039 0 0 0 0.32 0"/>
<feBlend mode="normal" in2="effect1_dropShadow_3226_7733" result="effect2_dropShadow_3226_7733"/>
<feBlend mode="normal" in="SourceGraphic" in2="effect2_dropShadow_3226_7733" result="shape"/>
</filter>
</defs>
</svg>
