<svg width="35" height="33" viewBox="0 0 35 33" fill="none" xmlns="http://www.w3.org/2000/svg">
<g filter="url(#filter0_dd_3226_7759)">
<g clip-path="url(#clip0_3226_7759)">
<rect x="7" y="3" width="28" height="18" rx="5" fill="white"/>
<path d="M32.3333 3H9.66667C8.19391 3 7 4.07452 7 5.4V18.6C7 19.9255 8.19391 21 9.66667 21H32.3333C33.8061 21 35 19.9255 35 18.6V5.4C35 4.07452 33.8061 3 32.3333 3Z" fill="white"/>
<path fill-rule="evenodd" clip-rule="evenodd" d="M28.2987 17.3688C28.2107 18.084 27.96 18.6 27.6667 18.6C27.3734 18.6 27.1227 18.084 27.0347 17.3688C26.24 17.2896 25.6667 17.064 25.6667 16.8C25.6667 16.536 26.24 16.3104 27.0347 16.2312C27.1227 15.516 27.372 15 27.6667 15C27.96 15 28.2107 15.516 28.2987 16.2312C29.0934 16.3104 29.6667 16.5348 29.6667 16.8C29.6667 17.064 29.0934 17.2896 28.2987 17.3688Z" fill="#F93939"/>
<path fill-rule="evenodd" clip-rule="evenodd" d="M7 12.6H20.3333V21H7V12.6Z" fill="#1A47B8"/>
<path fill-rule="evenodd" clip-rule="evenodd" d="M14.9654 8.96879C14.8774 9.68399 14.6267 10.2 14.3334 10.2C14.04 10.2 13.7894 9.68399 13.7014 8.96879C12.9067 8.88959 12.3334 8.66399 12.3334 8.39999C12.3334 8.13599 12.9067 7.91039 13.7014 7.83119C13.7894 7.11599 14.04 6.59999 14.3334 6.59999C14.6267 6.59999 14.8774 7.11599 14.9654 7.83119C15.76 7.91039 16.3334 8.13599 16.3334 8.39999C16.3334 8.66399 15.76 8.88959 14.9654 8.96879Z" fill="#1A47B8"/>
<path fill-rule="evenodd" clip-rule="evenodd" d="M20.3333 3H35V12.6L20.3333 12.6V3Z" fill="#F93939"/>
</g>
</g>
<defs>
<filter id="filter0_dd_3226_7759" x="0.142857" y="0.714285" width="41.7143" height="31.7143" filterUnits="userSpaceOnUse" color-interpolation-filters="sRGB">
<feFlood flood-opacity="0" result="BackgroundImageFix"/>
<feColorMatrix in="SourceAlpha" type="matrix" values="0 0 0 0 0 0 0 0 0 0 0 0 0 0 0 0 0 0 127 0" result="hardAlpha"/>
<feOffset dy="4.57143"/>
<feGaussianBlur stdDeviation="3.42857"/>
<feComposite in2="hardAlpha" operator="out"/>
<feColorMatrix type="matrix" values="0 0 0 0 0.258824 0 0 0 0 0.278431 0 0 0 0 0.298039 0 0 0 0.08 0"/>
<feBlend mode="normal" in2="BackgroundImageFix" result="effect1_dropShadow_3226_7759"/>
<feColorMatrix in="SourceAlpha" type="matrix" values="0 0 0 0 0 0 0 0 0 0 0 0 0 0 0 0 0 0 127 0" result="hardAlpha"/>
<feOffset/>
<feGaussianBlur stdDeviation="0.285714"/>
<feComposite in2="hardAlpha" operator="out"/>
<feColorMatrix type="matrix" values="0 0 0 0 0.258824 0 0 0 0 0.278431 0 0 0 0 0.298039 0 0 0 0.32 0"/>
<feBlend mode="normal" in2="effect1_dropShadow_3226_7759" result="effect2_dropShadow_3226_7759"/>
<feBlend mode="normal" in="SourceGraphic" in2="effect2_dropShadow_3226_7759" result="shape"/>
</filter>
<clipPath id="clip0_3226_7759">
<rect x="7" y="3" width="28" height="18" rx="5" fill="white"/>
</clipPath>
</defs>
</svg>
