<svg width="35" height="33" viewBox="0 0 35 33" fill="none" xmlns="http://www.w3.org/2000/svg">
<g filter="url(#filter0_dd_3226_7761)">
<g clip-path="url(#clip0_3226_7761)">
<rect y="3" width="28" height="18" rx="5" fill="white"/>
<path fill-rule="evenodd" clip-rule="evenodd" d="M0.000244141 15H28.0002V21H0.000244141V15Z" fill="#1A47B8"/>
<path fill-rule="evenodd" clip-rule="evenodd" d="M15.9601 11.6399C15.9868 11.7563 16.0001 11.8763 16.0001 11.9999C16.0001 12.9935 15.1041 13.7999 14.0001 13.7999C12.8961 13.7999 12.0001 12.9935 12.0001 11.9999C12.0001 11.8763 12.0135 11.7563 12.0401 11.6399C12.2268 12.1871 13.0321 12.5999 14.0001 12.5999C14.9681 12.5999 15.7735 12.1871 15.9601 11.6399Z" fill="#249F58"/>
<path d="M14.0001 11.4C14.3683 11.4 14.6668 11.1314 14.6668 10.8C14.6668 10.4686 14.3683 10.2 14.0001 10.2C13.6319 10.2 13.3334 10.4686 13.3334 10.8C13.3334 11.1314 13.6319 11.4 14.0001 11.4Z" fill="#FFDA2C"/>
<path fill-rule="evenodd" clip-rule="evenodd" d="M0.000244141 3H28.0002V9H0.000244141V3Z" fill="#F93939"/>
</g>
</g>
<defs>
<filter id="filter0_dd_3226_7761" x="-6.85714" y="0.714285" width="41.7143" height="31.7143" filterUnits="userSpaceOnUse" color-interpolation-filters="sRGB">
<feFlood flood-opacity="0" result="BackgroundImageFix"/>
<feColorMatrix in="SourceAlpha" type="matrix" values="0 0 0 0 0 0 0 0 0 0 0 0 0 0 0 0 0 0 127 0" result="hardAlpha"/>
<feOffset dy="4.57143"/>
<feGaussianBlur stdDeviation="3.42857"/>
<feComposite in2="hardAlpha" operator="out"/>
<feColorMatrix type="matrix" values="0 0 0 0 0.258824 0 0 0 0 0.278431 0 0 0 0 0.298039 0 0 0 0.08 0"/>
<feBlend mode="normal" in2="BackgroundImageFix" result="effect1_dropShadow_3226_7761"/>
<feColorMatrix in="SourceAlpha" type="matrix" values="0 0 0 0 0 0 0 0 0 0 0 0 0 0 0 0 0 0 127 0" result="hardAlpha"/>
<feOffset/>
<feGaussianBlur stdDeviation="0.285714"/>
<feComposite in2="hardAlpha" operator="out"/>
<feColorMatrix type="matrix" values="0 0 0 0 0.258824 0 0 0 0 0.278431 0 0 0 0 0.298039 0 0 0 0.32 0"/>
<feBlend mode="normal" in2="effect1_dropShadow_3226_7761" result="effect2_dropShadow_3226_7761"/>
<feBlend mode="normal" in="SourceGraphic" in2="effect2_dropShadow_3226_7761" result="shape"/>
</filter>
<clipPath id="clip0_3226_7761">
<rect y="3" width="28" height="18" rx="5" fill="white"/>
</clipPath>
</defs>
</svg>
