<svg width="35" height="33" viewBox="0 0 35 33" fill="none" xmlns="http://www.w3.org/2000/svg">
<g filter="url(#filter0_dd_3226_7741)">
<g clip-path="url(#clip0_3226_7741)">
<rect x="7" y="3" width="28" height="18" rx="5" fill="white"/>
<path fill-rule="evenodd" clip-rule="evenodd" d="M7 15H35V21H7V15ZM7 3H35V9H7V3Z" fill="#1A47B8"/>
<path d="M21 13.8C22.1046 13.8 23 12.9941 23 12C23 11.0059 22.1046 10.2 21 10.2C19.8955 10.2 19 11.0059 19 12C19 12.9941 19.8955 13.8 21 13.8Z" fill="#1A47B8"/>
<path d="M21 12.6C21.3682 12.6 21.6667 12.3314 21.6667 12C21.6667 11.6686 21.3682 11.4 21 11.4C20.6318 11.4 20.3333 11.6686 20.3333 12C20.3333 12.3314 20.6318 12.6 21 12.6Z" fill="#FFDA2C"/>
<path fill-rule="evenodd" clip-rule="evenodd" d="M17.6667 11.4L19.0001 12.6L21 13.8L23.0001 12.6L24.3334 11.4L23.0001 13.8H19.0001L17.6667 11.4Z" fill="#249F58"/>
</g>
</g>
<defs>
<filter id="filter0_dd_3226_7741" x="0.142857" y="0.714285" width="41.7143" height="31.7143" filterUnits="userSpaceOnUse" color-interpolation-filters="sRGB">
<feFlood flood-opacity="0" result="BackgroundImageFix"/>
<feColorMatrix in="SourceAlpha" type="matrix" values="0 0 0 0 0 0 0 0 0 0 0 0 0 0 0 0 0 0 127 0" result="hardAlpha"/>
<feOffset dy="4.57143"/>
<feGaussianBlur stdDeviation="3.42857"/>
<feComposite in2="hardAlpha" operator="out"/>
<feColorMatrix type="matrix" values="0 0 0 0 0.258824 0 0 0 0 0.278431 0 0 0 0 0.298039 0 0 0 0.08 0"/>
<feBlend mode="normal" in2="BackgroundImageFix" result="effect1_dropShadow_3226_7741"/>
<feColorMatrix in="SourceAlpha" type="matrix" values="0 0 0 0 0 0 0 0 0 0 0 0 0 0 0 0 0 0 127 0" result="hardAlpha"/>
<feOffset/>
<feGaussianBlur stdDeviation="0.285714"/>
<feComposite in2="hardAlpha" operator="out"/>
<feColorMatrix type="matrix" values="0 0 0 0 0.258824 0 0 0 0 0.278431 0 0 0 0 0.298039 0 0 0 0.32 0"/>
<feBlend mode="normal" in2="effect1_dropShadow_3226_7741" result="effect2_dropShadow_3226_7741"/>
<feBlend mode="normal" in="SourceGraphic" in2="effect2_dropShadow_3226_7741" result="shape"/>
</filter>
<clipPath id="clip0_3226_7741">
<rect x="7" y="3" width="28" height="18" rx="5" fill="white"/>
</clipPath>
</defs>
</svg>
