<svg width="42" height="25" viewBox="0 0 50% 50%" fill="none" xmlns="http://www.w3.org/2000/svg">
<g filter="url(#filter0_dd_3226_7775)">
<g clip-path="url(#clip0_3226_7775)">
<rect x="7" y="3" width="28" height="18" rx="5" fill="white"/>
<path fill-rule="evenodd" clip-rule="evenodd" d="M7.00024 3H19.0002V11.4H7.00024V3Z" fill="#1A47B8"/>
<path fill-rule="evenodd" clip-rule="evenodd" d="M19.0002 3L19.0002 4.2H35.0002V3H19.0002ZM19.0002 5.4V6.6H35.0002V5.4H19.0002ZM19.0002 7.8V9H35.0002V7.8H19.0002ZM19.0002 10.2L19.0002 11.4H35.0002V10.2H19.0002ZM7.00024 12.6V13.8H35.0002V12.6H7.00024ZM7.00024 15V16.2H35.0002V15H7.00024ZM7.00024 17.4V18.6H35.0002V17.4H7.00024ZM7.00024 19.8V21H35.0002V19.8H7.00024Z" fill="#F93939"/>
<path fill-rule="evenodd" clip-rule="evenodd" d="M8.33342 4.19998V5.39998H9.66675V4.19998H8.33342ZM11.0001 4.19998V5.39998H12.3334V4.19998H11.0001ZM13.6668 4.19998V5.39998H15.0001V4.19998H13.6668ZM16.3334 4.19998V5.39998H17.6668V4.19998H16.3334ZM15.0001 5.39998V6.59998H16.3334V5.39998H15.0001ZM12.3334 5.39998V6.59998H13.6668V5.39998H12.3334ZM9.66675 5.39998V6.59998H11.0001V5.39998H9.66675ZM8.33342 6.59998V7.79998H9.66675V6.59998H8.33342ZM11.0001 6.59998V7.79998H12.3334V6.59998H11.0001ZM13.6668 6.59998V7.79998H15.0001V6.59998H13.6668ZM16.3334 6.59998V7.79998H17.6668V6.59998H16.3334ZM8.33342 8.99998V10.2H9.66675V8.99998H8.33342ZM11.0001 8.99998V10.2H12.3334V8.99998H11.0001ZM13.6668 8.99998V10.2H15.0001V8.99998H13.6668ZM16.3334 8.99998V10.2H17.6668V8.99998H16.3334ZM15.0001 7.79998V8.99998H16.3334V7.79998H15.0001ZM12.3334 7.79998V8.99998H13.6668V7.79998H12.3334ZM9.66675 7.79998V8.99998H11.0001V7.79998H9.66675Z" fill="white"/>
</g>
</g>
<defs>
<filter id="filter0_dd_3226_7775" x="0.142857" y="0.714285" width="41.7143" height="31.7143" filterUnits="userSpaceOnUse" color-interpolation-filters="sRGB">
<feFlood flood-opacity="0" result="BackgroundImageFix"/>
<feColorMatrix in="SourceAlpha" type="matrix" values="0 0 0 0 0 0 0 0 0 0 0 0 0 0 0 0 0 0 127 0" result="hardAlpha"/>
<feOffset dy="4.57143"/>
<feGaussianBlur stdDeviation="3.42857"/>
<feComposite in2="hardAlpha" operator="out"/>
<feColorMatrix type="matrix" values="0 0 0 0 0.258824 0 0 0 0 0.278431 0 0 0 0 0.298039 0 0 0 0.08 0"/>
<feBlend mode="normal" in2="BackgroundImageFix" result="effect1_dropShadow_3226_7775"/>
<feColorMatrix in="SourceAlpha" type="matrix" values="0 0 0 0 0 0 0 0 0 0 0 0 0 0 0 0 0 0 127 0" result="hardAlpha"/>
<feOffset/>
<feGaussianBlur stdDeviation="0.285714"/>
<feComposite in2="hardAlpha" operator="out"/>
<feColorMatrix type="matrix" values="0 0 0 0 0.258824 0 0 0 0 0.278431 0 0 0 0 0.298039 0 0 0 0.32 0"/>
<feBlend mode="normal" in2="effect1_dropShadow_3226_7775" result="effect2_dropShadow_3226_7775"/>
<feBlend mode="normal" in="SourceGraphic" in2="effect2_dropShadow_3226_7775" result="shape"/>
</filter>
<clipPath id="clip0_3226_7775">
<rect x="7" y="3" width="28" height="18" rx="5" fill="white"/>
</clipPath>
</defs>
</svg>
