<svg width="10" height="10" viewBox="0 0 10 10" fill="none" xmlns="http://www.w3.org/2000/svg">
<path d="M5.01978 9.99316C4.58294 9.99316 4.18136 9.75337 3.97416 9.36881L0.71059 3.31163C0.38948 2.71565 0.821121 1.99277 1.4981 1.99277C1.83548 1.99277 2.14416 2.18259 2.2964 2.48367L5.00797 7.84628C5.01587 7.86191 4.99902 7.87845 4.98354 7.87025C4.967 7.8615 4.97322 7.83643 4.99195 7.83643H5.12488C5.14546 7.83643 5.152 7.86417 5.1336 7.87337C5.11747 7.88144 5.09998 7.86517 5.10685 7.8485L8.14242 0.483717C8.25829 0.202584 8.53025 0.0172785 8.83428 0.0122901C9.38387 0.00327291 9.76186 0.561498 9.54944 1.06846L6.11523 9.26444C5.93026 9.70588 5.4984 9.99316 5.01978 9.99316Z" fill="white"/>
</svg>
